<svg width="34" height="34" viewBox="0 0 34 34" fill="none" xmlns="http://www.w3.org/2000/svg">
<path d="M30.3071 6.25488L31.7842 7.66367L28.6803 10.6234L27.2031 9.2146L30.3071 6.25488Z" fill="#B4D2D7"/>
<path d="M5.69618 6.25488L8.8001 9.2146L7.32268 10.6234L4.21875 7.66367L5.69618 6.25488Z" fill="#E1EBF0"/>
<path d="M29.5631 4.14062L33.9986 8.37009L32.5215 9.77887L28.0859 5.54941L29.5631 4.14062Z" fill="#87A0AF"/>
<path d="M6.43554 4.14062L7.9127 5.54915L3.47743 9.77861L2 8.37009L6.43554 4.14062Z" fill="#B4D2D7"/>
<path d="M21.4872 0.99707H16.6094L18.0033 7.98625H21.4872V0.99707Z" fill="#B4D2D7"/>
<path d="M14.5156 0.99707H17.9996V7.98625H14.5156V0.99707Z" fill="#E1EBF0"/>
<path d="M28.8306 9.07524C25.9383 6.3176 22.0933 4.79883 18.0033 4.79883L16.6094 19.3995L18.0033 33.9999C22.0933 33.9999 25.9383 32.4811 28.8306 29.7235C31.7226 26.9658 33.3151 23.2993 33.3151 19.3995C33.3151 15.4995 31.7226 11.8329 28.8306 9.07524Z" fill="#005FE1"/>
<path d="M7.17619 9.07524C4.28418 11.8329 2.69141 15.4995 2.69141 19.3995C2.69141 23.2993 4.28418 26.9658 7.17619 29.7235C10.0682 32.4811 13.9134 33.9999 18.0032 33.9999V4.79883C13.9134 4.79883 10.0682 6.3176 7.17619 9.07524Z" fill="#69B1E9"/>
<path d="M16.6094 18.0703L18.0033 30.1437C24.2166 30.1437 29.271 25.3238 29.271 19.3995L16.6094 18.0703Z" fill="#EFE2DD"/>
<path d="M29.271 19.3995C29.271 13.4751 24.2163 8.65527 18.0033 8.65527L16.6094 19.3995H29.271Z" fill="#00CC76"/>
<path d="M23.5815 0H18.0055L17.3086 0.996861L18.0055 1.99217H23.5815V0Z" fill="#87A0AF"/>
<path d="M12.4258 0H18.0014V1.99217H12.4258V0Z" fill="#B4D2D7"/>
<path d="M18.0021 8.6543C11.7891 8.6543 6.73438 13.4741 6.73438 19.3988C6.73438 25.3231 11.7891 30.143 18.0021 30.143V8.6543Z" fill="#FFF5F5"/>
<path d="M18.0033 16.4092L16.6094 19.3992L18.0033 22.3891C19.7323 22.3891 21.1388 21.0477 21.1388 19.3992C21.1388 17.7505 19.7323 16.4092 18.0033 16.4092Z" fill="#005FE1"/>
<path d="M14.8672 19.3992C14.8672 21.0477 16.2739 22.3891 18.0027 22.3891V16.4092C16.2739 16.4092 14.8672 17.7505 14.8672 19.3992Z" fill="#69B1E9"/>
</svg>
