<svg width="34" height="34" viewBox="0 0 34 34" fill="none" xmlns="http://www.w3.org/2000/svg">
<path d="M29.7916 19.8477L27.3266 18.0627C27.3691 17.7227 27.3691 17.3402 27.3691 17.0002C27.3691 16.6177 27.3691 16.2777 27.3266 15.9377L29.7916 14.1527C30.2166 13.8977 30.3441 13.3877 30.0891 13.0052L27.0716 7.8627C26.8166 7.4377 26.3066 7.3102 25.8816 7.5652L23.0766 8.7977C22.4816 8.37269 21.8441 8.0327 21.1641 7.7352L20.9091 4.6752C20.9091 4.2077 20.5266 3.8252 20.0591 3.8252H14.0241C13.5566 3.8252 13.1741 4.2077 13.1741 4.6752L12.8766 7.6927C12.1966 7.9902 11.5591 8.33019 10.9641 8.7552L8.15912 7.5227C7.73412 7.2677 7.22412 7.4377 6.96912 7.8202L3.99412 13.0052C3.73912 13.4302 3.90912 13.9402 4.29162 14.1527L6.75662 15.9377C6.71412 16.2777 6.71412 16.6602 6.71412 17.0002C6.71412 17.3402 6.71412 17.7227 6.75662 18.0627L4.29162 19.8477C3.86662 20.1027 3.73912 20.6127 3.99412 20.9952L7.01162 26.1377C7.26662 26.5627 7.77662 26.6902 8.20162 26.4352L11.0066 25.2027C11.6016 25.6277 12.2391 25.9677 12.9191 26.2652L13.1741 29.3252C13.1741 29.7927 13.5566 30.1752 14.0241 30.1752H20.0591C20.5266 30.1752 20.9091 29.7927 20.9091 29.3252L21.2066 26.3077C21.8866 26.0102 22.5241 25.6702 23.1191 25.2452L25.9241 26.4777C26.3491 26.7327 26.8591 26.5627 27.1141 26.1802L30.1316 21.0377C30.3441 20.6127 30.1741 20.1027 29.7916 19.8477ZM17.0416 22.0152C14.2366 22.0152 11.9416 19.7627 11.9416 17.0002C11.9416 14.2377 14.2366 11.9852 17.0416 11.9852C19.8466 11.9852 22.1416 14.2377 22.1416 17.0002C22.1416 19.7627 19.8466 22.0152 17.0416 22.0152Z" fill="#FAC546"/>
<path d="M20.0589 30.6004H14.0239C13.3439 30.6004 12.7489 30.0479 12.7489 29.3679L12.4514 26.6479C11.8989 26.3929 11.3889 26.0954 10.9214 25.7554L8.37141 26.9029C7.77641 27.2429 6.96891 27.0304 6.62891 26.4354L3.61141 21.2079C3.44141 20.9104 3.39891 20.5704 3.48391 20.2304C3.56891 19.8904 3.78141 19.6354 4.07891 19.4654L6.33141 17.8504C6.28891 17.5529 6.28891 17.2554 6.28891 16.9579C6.28891 16.6604 6.28891 16.3629 6.33141 16.0654L4.07891 14.4504C3.78141 14.2804 3.56891 14.0254 3.48391 13.6854C3.39891 13.3454 3.44141 13.0054 3.61141 12.7079L6.62891 7.56539C6.96891 6.97039 7.73391 6.75789 8.37141 7.09789L10.9214 8.24539C11.3889 7.90539 11.9414 7.60789 12.4514 7.35289L12.7489 4.63289C12.7489 3.95289 13.3014 3.40039 14.0239 3.40039H20.0589C20.7389 3.40039 21.3339 3.95289 21.3339 4.63289L21.6314 7.35289C22.1839 7.60789 22.6939 7.90539 23.1614 8.24539L25.7114 7.09789C26.3064 6.75789 27.1139 6.97039 27.4539 7.56539L30.4714 12.7079C30.6414 13.0054 30.6839 13.3454 30.5989 13.6854C30.5139 14.0254 30.3014 14.2804 30.0039 14.4504L27.7514 16.0654C27.7939 16.3629 27.7939 16.6604 27.7939 16.9579C27.7939 17.2554 27.7939 17.5529 27.7514 17.8504L30.0039 19.4654C30.3014 19.6354 30.5139 19.8904 30.5989 20.2304C30.6839 20.5704 30.6414 20.9104 30.4714 21.2079L27.4539 26.3504C27.1139 26.9454 26.3489 27.1579 25.7114 26.8179L23.1614 25.6704C22.6939 26.0104 22.1414 26.3079 21.6314 26.5629L21.3339 29.2829C21.3339 30.0479 20.7389 30.6004 20.0589 30.6004ZM10.9639 24.8204C11.0489 24.8204 11.1339 24.8629 11.2189 24.9054C11.7714 25.3304 12.4089 25.6704 13.0464 25.9254C13.1739 25.9679 13.3014 26.1379 13.3014 26.2654L13.5989 29.2829V29.3254C13.5989 29.5804 13.8114 29.7504 14.0239 29.7504H20.0589C20.3139 29.7504 20.4839 29.5804 20.4839 29.3254V29.2829L20.7814 26.2654C20.7814 26.0954 20.9089 25.9679 21.0364 25.9254C21.6739 25.6279 22.2689 25.2879 22.8639 24.9054C22.9914 24.8204 23.1614 24.8204 23.2889 24.8629L26.0939 26.0954H26.1364C26.3489 26.2229 26.6039 26.1379 26.7314 25.9254L29.7489 20.7829C29.7914 20.6979 29.8339 20.5704 29.7914 20.4854C29.7489 20.3579 29.7064 20.2729 29.5789 20.2304C29.5789 20.2304 29.5364 20.2304 29.5364 20.1879L27.0714 18.4029C26.9439 18.3179 26.8589 18.1479 26.9014 18.0204C26.9439 17.6804 26.9439 17.3404 26.9439 17.0004C26.9439 16.6604 26.9439 16.3204 26.9014 15.9804C26.9014 15.8104 26.9439 15.6829 27.0714 15.5979L29.5364 13.8129C29.5364 13.8129 29.5789 13.8129 29.5789 13.7704C29.6639 13.7279 29.7489 13.6004 29.7914 13.5154C29.8339 13.3879 29.7914 13.3029 29.7489 13.2179L26.7314 8.07539C26.6039 7.86289 26.3489 7.82039 26.1364 7.90539H26.0939L23.2889 9.13789C23.1614 9.18039 22.9914 9.18039 22.8639 9.09539C22.3114 8.67039 21.6739 8.33039 21.0364 8.07539C20.9089 8.03289 20.7814 7.86289 20.7814 7.73539L20.4839 4.71789V4.67539C20.4839 4.42039 20.2714 4.25039 20.0589 4.25039H14.0239C13.7689 4.25039 13.5989 4.42039 13.5989 4.67539V4.71789L13.3014 7.73539C13.3014 7.90539 13.1739 8.03289 13.0464 8.07539C12.4089 8.37289 11.8139 8.71289 11.2189 9.09539C11.0914 9.18039 10.9214 9.18039 10.7939 9.13789L7.98891 7.90539H7.94641C7.73391 7.77789 7.47891 7.86289 7.35141 8.07539L4.33391 13.2179C4.29141 13.3029 4.24891 13.4304 4.29141 13.5154C4.33391 13.6429 4.37641 13.7279 4.50391 13.7704C4.50391 13.7704 4.54641 13.7704 4.54641 13.8129L7.01141 15.5979C7.13891 15.6829 7.22391 15.8529 7.18141 15.9804C7.13891 16.3204 7.13891 16.6604 7.13891 17.0004C7.13891 17.3404 7.13891 17.6804 7.18141 18.0204C7.18141 18.1904 7.13891 18.3179 7.01141 18.4029L4.54641 20.1879C4.54641 20.1879 4.50391 20.1879 4.50391 20.2304C4.41891 20.2729 4.33391 20.4004 4.29141 20.4854C4.24891 20.6129 4.29141 20.6979 4.33391 20.7829L7.35141 25.9254C7.47891 26.1379 7.73391 26.1804 7.94641 26.0954H7.98891L10.7939 24.8629C10.8364 24.8204 10.8789 24.8204 10.9639 24.8204ZM17.0414 22.4404C13.9814 22.4404 11.5164 19.9754 11.5164 17.0004C11.5164 14.0254 13.9814 11.5604 17.0414 11.5604C20.1014 11.5604 22.5664 14.0254 22.5664 17.0004C22.5664 19.9754 20.0589 22.4404 17.0414 22.4404ZM17.0414 12.4104C14.4489 12.4104 12.3664 14.4929 12.3664 17.0004C12.3664 19.5504 14.4489 21.5904 17.0414 21.5904C19.6339 21.5904 21.7164 19.5079 21.7164 17.0004C21.7164 14.4504 19.5914 12.4104 17.0414 12.4104Z" fill="#231C1C"/>
<path d="M17.0433 11.0498C13.7283 11.0498 11.0508 13.7273 11.0508 16.9998C11.0508 20.2723 13.7283 22.9498 17.0433 22.9498C20.3583 22.9498 23.0358 20.2723 23.0358 16.9998C23.0358 13.7273 20.3158 11.0498 17.0433 11.0498ZM17.0433 20.3998C15.1308 20.3998 13.6008 18.8698 13.6008 16.9998C13.6008 15.1298 15.1308 13.5998 17.0433 13.5998C18.9558 13.5998 20.4858 15.1298 20.4858 16.9998C20.4858 18.8698 18.9133 20.3998 17.0433 20.3998Z" fill="#E1E0A6"/>
<path d="M17.0425 23.375C13.515 23.375 10.625 20.5275 10.625 17C10.625 13.4725 13.515 10.625 17.0425 10.625C20.57 10.625 23.46 13.4725 23.46 17C23.4175 20.5275 20.57 23.375 17.0425 23.375ZM17.0425 11.475C13.9825 11.475 11.475 13.94 11.475 17C11.475 20.06 13.9825 22.525 17.0425 22.525C20.1025 22.525 22.61 20.06 22.61 17C22.5675 13.94 20.1025 11.475 17.0425 11.475ZM17.0425 20.825C14.9175 20.825 13.175 19.125 13.175 17C13.175 14.875 14.9175 13.175 17.0425 13.175C19.1675 13.175 20.91 14.875 20.91 17C20.91 19.125 19.1675 20.825 17.0425 20.825ZM17.0425 14.025C15.385 14.025 14.025 15.3425 14.025 17C14.025 18.6575 15.385 19.975 17.0425 19.975C18.7 19.975 20.06 18.6575 20.06 17C20.06 15.3425 18.7 14.025 17.0425 14.025Z" fill="#231C1C"/>
</svg>
