<svg width="34" height="34" viewBox="0 0 34 34" fill="none" xmlns="http://www.w3.org/2000/svg">
<g clip-path="url(#clip0_8336_11303)">
<mask id="mask0_8336_11303" style="mask-type:luminance" maskUnits="userSpaceOnUse" x="0" y="0" width="34" height="34">
<path d="M34 0H0V34H34V0Z" fill="white"/>
</mask>
<g mask="url(#mask0_8336_11303)">
<path d="M12.043 21.6226C12.042 19.8375 12.5792 18.0936 13.5846 16.6186C14.5899 15.1436 16.0166 14.0059 17.6785 13.3542C16.7882 12.4315 16.2914 11.1989 16.293 9.91667V9.20833C16.293 8.5572 16.4212 7.91243 16.6704 7.31086C16.9196 6.70929 17.2848 6.16269 17.7452 5.70226C18.2057 5.24184 18.7523 4.87661 19.3538 4.62743C19.9554 4.37825 20.6002 4.25 21.2513 4.25C21.9024 4.25 22.5472 4.37825 23.1488 4.62743C23.7503 4.87661 24.297 5.24184 24.7574 5.70226C25.2178 6.16269 25.583 6.70929 25.8322 7.31086C26.0814 7.91243 26.2096 8.5572 26.2096 9.20833V9.91667C26.2105 10.6024 26.0686 11.2809 25.7931 11.9089C25.5177 12.5369 25.1146 13.1007 24.6095 13.5646C26.1461 14.2771 27.4468 15.4144 28.3579 16.8423C29.269 18.2701 29.7525 19.9288 29.7513 21.6226C29.7513 24.1577 25.7846 24.7917 20.8971 24.7917C16.0096 24.7917 12.043 24.1577 12.043 21.6226Z" fill="url(#paint0_linear_8336_11303)"/>
<path d="M20.8972 24.4374C23.6381 24.4374 25.6531 24.2348 27.0574 23.8182C28.6319 23.3511 29.3973 22.6329 29.3973 21.6225C29.3973 19.9645 28.9217 18.3574 28.022 16.9751C27.145 15.6277 25.9134 14.5596 24.4603 13.8862L23.9794 13.6634L24.3693 13.3043C25.3137 12.4346 25.8553 11.1998 25.8553 9.91674V9.20848C25.8553 6.66965 23.7898 4.60417 21.251 4.60417C18.7125 4.60417 16.6473 6.66965 16.6473 9.20848V9.91674C16.6473 11.1132 17.1041 12.2468 17.9335 13.1088L18.3012 13.491L17.8074 13.6842C16.2312 14.301 14.8851 15.3658 13.9147 16.7637C12.9219 18.1937 12.3971 19.8739 12.3971 21.6225C12.3971 22.6329 13.1625 23.3511 14.737 23.8182C16.1413 24.2348 18.1563 24.4374 20.8972 24.4374ZM20.8972 24.7915C16.0069 24.7915 12.043 24.1579 12.043 21.6225C12.043 17.8606 14.3799 14.645 17.6783 13.3544C16.8206 12.4629 16.2932 11.2513 16.2932 9.91674V9.20848C16.2932 6.46977 18.513 4.25 21.251 4.25C23.9897 4.25 26.2095 6.46977 26.2095 9.20848V9.91674C26.2095 11.3596 25.5932 12.6587 24.6092 13.5649C27.6452 14.9717 29.7514 18.0508 29.7514 21.6225C29.7514 24.1579 25.7875 24.7915 20.8972 24.7915Z" fill="white" fill-opacity="0.3"/>
<path d="M4.25 26.2082C4.24933 24.2342 4.8378 22.305 5.94006 20.6674C7.04233 19.0298 8.60823 17.7585 10.4373 17.0162C9.56908 16.2572 8.95306 15.2515 8.6715 14.1333C8.38995 13.015 8.45626 11.8375 8.86158 10.7579C9.2669 9.67832 9.99194 8.74811 10.9399 8.09146C11.8878 7.43482 13.0135 7.08301 14.1667 7.08301C15.3198 7.08301 16.4455 7.43482 17.3935 8.09146C18.3414 8.74811 19.0664 9.67832 19.4718 10.7579C19.8771 11.8375 19.9434 13.015 19.6618 14.1333C19.3803 15.2515 18.7643 16.2572 17.896 17.0162C19.7251 17.7585 21.291 19.0298 22.3933 20.6674C23.4955 22.305 24.084 24.2342 24.0833 26.2082C24.0833 29.0415 19.6435 29.7499 14.1667 29.7499C8.68983 29.7499 4.25 29.0415 4.25 26.2082Z" fill="#887DFF" fill-opacity="0.7"/>
<path d="M14.167 29.3958C17.2405 29.3958 19.5012 29.1688 21.0783 28.7018C22.862 28.1736 23.7291 27.3579 23.7291 26.208C23.7291 24.2677 23.1514 22.3997 22.0583 20.806C20.9906 19.2491 19.5052 18.052 17.7628 17.3444L17.2304 17.1281L17.6629 16.7497C18.817 15.7398 19.4789 14.2819 19.4789 12.7497C19.4789 9.82038 17.096 7.43717 14.167 7.43717C11.2376 7.43717 8.85438 9.82038 8.85438 12.7497C8.85438 14.2821 9.51633 15.74 10.6705 16.7497L11.1031 17.1282L10.5706 17.3444C8.82811 18.0521 7.34268 19.2491 6.2749 20.806C5.1819 22.3997 4.60417 24.2677 4.60417 26.208C4.60417 27.3579 5.47126 28.1736 7.255 28.7018C8.83219 29.1688 11.0931 29.3958 14.167 29.3958ZM14.167 29.75C8.68955 29.75 4.25 29.0411 4.25 26.208C4.25 22.0503 6.80843 18.4901 10.4373 17.0163C9.24991 15.9775 8.50021 14.4513 8.50021 12.7497C8.50021 9.62026 11.0368 7.08301 14.167 7.08301C17.2964 7.08301 19.8331 9.62026 19.8331 12.7497C19.8331 14.4511 19.0832 15.9775 17.8961 17.0162C21.5247 18.49 24.0833 22.0503 24.0833 26.208C24.0833 29.0411 19.6437 29.75 14.167 29.75Z" fill="white" fill-opacity="0.3"/>
</g>
</g>
<defs>
<linearGradient id="paint0_linear_8336_11303" x1="20.8971" y1="4.25" x2="20.8971" y2="24.7917" gradientUnits="userSpaceOnUse">
<stop stop-color="#8F5BFF"/>
<stop offset="1" stop-color="#1600C8"/>
</linearGradient>
<clipPath id="clip0_8336_11303">
<rect width="34" height="34" fill="white"/>
</clipPath>
</defs>
</svg>
