<svg width="34" height="34" viewBox="0 0 34 34" fill="none" xmlns="http://www.w3.org/2000/svg">
<path d="M17.5328 26.461C17.7213 26.461 17.8741 26.3082 17.8741 26.1197C17.8741 25.9312 17.7213 25.7783 17.5328 25.7783C17.3442 25.7783 17.1914 25.9312 17.1914 26.1197C17.1914 26.3082 17.3442 26.461 17.5328 26.461Z" fill="#231F20"/>
<path d="M19.2619 25.7783C19.1946 25.7783 19.1289 25.7983 19.073 25.8356C19.0171 25.873 18.9735 25.9261 18.9478 25.9882C18.922 26.0503 18.9153 26.1187 18.9284 26.1847C18.9415 26.2506 18.9739 26.3112 19.0215 26.3587C19.069 26.4063 19.1296 26.4387 19.1955 26.4518C19.2615 26.4649 19.3299 26.4582 19.392 26.4324C19.4541 26.4067 19.5072 26.3631 19.5446 26.3072C19.5819 26.2513 19.6019 26.1856 19.6019 26.1183C19.6019 26.0281 19.5661 25.9417 19.5023 25.8779C19.4385 25.8141 19.352 25.7783 19.2619 25.7783Z" fill="#231F20"/>
<path d="M20.9585 26.461C21.1471 26.461 21.2999 26.3082 21.2999 26.1197C21.2999 25.9312 21.1471 25.7783 20.9585 25.7783C20.77 25.7783 20.6172 25.9312 20.6172 26.1197C20.6172 26.3082 20.77 26.461 20.9585 26.461Z" fill="#231F20"/>
<path d="M13.8584 23.7264C13.4442 23.7273 13.0374 23.8358 12.6779 24.0413V21.6613C12.6779 21.5711 12.6421 21.4846 12.5783 21.4209C12.5145 21.3571 12.428 21.3213 12.3379 21.3213H9.26359C9.19526 21.3214 9.12853 21.342 9.07212 21.3806C9.0157 21.4192 8.97221 21.4738 8.94733 21.5375C8.92244 21.6011 8.91732 21.6708 8.93261 21.7374C8.94791 21.804 8.98292 21.8644 9.03307 21.9108C9.20978 22.0709 9.351 22.2662 9.44762 22.4842C9.54425 22.7021 9.59414 22.9379 9.59407 23.1763C9.59407 23.6341 9.41224 24.073 9.08859 24.3967C8.76493 24.7203 8.32595 24.9022 7.86823 24.9022C7.41051 24.9022 6.97154 24.7203 6.64788 24.3967C6.32422 24.073 6.14239 23.6341 6.14239 23.1763C6.14233 22.9379 6.19222 22.7021 6.28884 22.4842C6.38547 22.2662 6.52668 22.0709 6.70339 21.9108C6.75355 21.8644 6.78856 21.804 6.80386 21.7374C6.81915 21.6708 6.81402 21.6011 6.78914 21.5375C6.76425 21.4738 6.72077 21.4192 6.66435 21.3806C6.60794 21.342 6.54121 21.3214 6.47287 21.3213H3.39859C3.30842 21.3213 3.22194 21.3571 3.15818 21.4209C3.09442 21.4846 3.05859 21.5711 3.05859 21.6613V29.2399C3.05859 29.6908 3.2377 30.1232 3.55651 30.442C3.87532 30.7608 4.30773 30.9399 4.75859 30.9399H12.3379C12.428 30.9399 12.5145 30.9041 12.5783 30.8403C12.6421 30.7765 12.6779 30.6901 12.6779 30.5999V28.2199C12.9981 28.4008 13.3557 28.5058 13.7229 28.5267C14.0901 28.5477 14.4572 28.4841 14.796 28.3409C15.1348 28.1977 15.4362 27.9786 15.677 27.7006C15.9178 27.4226 16.0916 27.093 16.185 26.7372C16.2784 26.3814 16.2889 26.009 16.2157 25.6485C16.1425 25.288 15.9876 24.9492 15.7628 24.658C15.5381 24.3669 15.2495 24.1311 14.9193 23.9691C14.5891 23.807 14.2262 23.7228 13.8584 23.7231V23.7264Z" fill="#231F20"/>
<path d="M13.858 27.8584C13.6186 27.8585 13.3819 27.8081 13.1632 27.7105C12.9446 27.6129 12.749 27.4703 12.5892 27.292C12.5426 27.2418 12.4822 27.2067 12.4155 27.1911C12.3489 27.1754 12.2792 27.18 12.2152 27.2043C12.1512 27.2289 12.0961 27.2724 12.0573 27.329C12.0184 27.3855 11.9976 27.4525 11.9976 27.5211V30.2602H4.75828C4.48776 30.2602 4.22832 30.1527 4.03703 29.9614C3.84575 29.7701 3.73828 29.5107 3.73828 29.2402V22.0029H5.7708C5.56715 22.361 5.46072 22.7661 5.46208 23.178C5.46208 23.816 5.71555 24.428 6.16674 24.8792C6.61792 25.3303 7.22985 25.5838 7.86792 25.5838C8.50599 25.5838 9.11793 25.3303 9.56911 24.8792C10.0203 24.428 10.2738 23.816 10.2738 23.178C10.2751 22.7661 10.1687 22.361 9.96504 22.0029H11.9976V24.7433C11.9975 24.8121 12.0182 24.8792 12.0571 24.9359C12.0959 24.9926 12.151 25.0362 12.2152 25.0609C12.2792 25.0851 12.3489 25.0897 12.4155 25.0741C12.4822 25.0585 12.5426 25.0233 12.5892 24.9732C12.749 24.7949 12.9446 24.6523 13.1632 24.5547C13.3819 24.4571 13.6186 24.4067 13.858 24.4067C14.0847 24.4067 14.3091 24.4514 14.5185 24.5381C14.7279 24.6248 14.9181 24.752 15.0784 24.9122C15.2387 25.0725 15.3658 25.2627 15.4525 25.4721C15.5392 25.6815 15.5839 25.9059 15.5839 26.1326C15.5839 26.3592 15.5392 26.5836 15.4525 26.793C15.3658 27.0024 15.2387 27.1927 15.0784 27.3529C14.9181 27.5132 14.7279 27.6403 14.5185 27.727C14.3091 27.8138 14.0847 27.8584 13.858 27.8584Z" fill="#00A1D3"/>
<path d="M30.5996 21.3226H28.2237C28.4293 20.9633 28.5369 20.5562 28.5358 20.1422C28.5358 19.5041 28.2823 18.8922 27.8311 18.441C27.38 17.9898 26.768 17.7363 26.13 17.7363C25.4919 17.7363 24.8799 17.9898 24.4288 18.441C23.9776 18.8922 23.7241 19.5041 23.7241 20.1422C23.723 20.5562 23.8306 20.9633 24.0362 21.3226H21.6603C21.5701 21.3226 21.4837 21.3585 21.4199 21.4222C21.3561 21.486 21.3203 21.5725 21.3203 21.6626V24.7369C21.3204 24.8053 21.3411 24.872 21.3796 24.9284C21.4182 24.9848 21.4729 25.0283 21.5365 25.0532C21.6001 25.0781 21.6698 25.0832 21.7364 25.0679C21.803 25.0526 21.8635 25.0176 21.9099 24.9674C22.0698 24.7908 22.265 24.6496 22.4828 24.553C22.7007 24.4564 22.9364 24.4064 23.1747 24.4064C23.6324 24.4064 24.0714 24.5883 24.395 24.9119C24.7187 25.2356 24.9005 25.6746 24.9005 26.1323C24.9005 26.59 24.7187 27.029 24.395 27.3526C24.0714 27.6763 23.6324 27.8581 23.1747 27.8581C22.9364 27.8581 22.7007 27.8082 22.4828 27.7116C22.265 27.615 22.0698 27.4738 21.9099 27.2971C21.8635 27.247 21.803 27.212 21.7364 27.1967C21.6698 27.1814 21.6001 27.1865 21.5365 27.2114C21.4729 27.2363 21.4182 27.2798 21.3796 27.3362C21.3411 27.3926 21.3204 27.4593 21.3203 27.5276V30.5999C21.3203 30.6901 21.3561 30.7765 21.4199 30.8403C21.4837 30.9041 21.5701 30.9399 21.6603 30.9399H29.2396C29.6905 30.9399 30.1229 30.7608 30.4417 30.442C30.7605 30.1232 30.9396 29.6908 30.9396 29.2399V21.6626C30.9396 21.5725 30.9038 21.486 30.84 21.4222C30.7762 21.3585 30.6898 21.3226 30.5996 21.3226Z" fill="#231F20"/>
<path d="M30.2593 29.2396C30.2593 29.5101 30.1518 29.7695 29.9605 29.9608C29.7692 30.1521 29.5098 30.2596 29.2393 30.2596H22V28.2264C22.3578 28.4301 22.7626 28.5368 23.1744 28.5358C23.4903 28.5358 23.8031 28.4735 24.095 28.3526C24.3869 28.2317 24.6521 28.0545 24.8755 27.8311C25.0989 27.6077 25.2762 27.3425 25.3971 27.0506C25.518 26.7587 25.5802 26.4459 25.5802 26.1299C25.5802 25.814 25.518 25.5012 25.3971 25.2093C25.2762 24.9174 25.0989 24.6522 24.8755 24.4287C24.6521 24.2053 24.3869 24.0281 24.095 23.9072C23.8031 23.7863 23.4903 23.7241 23.1744 23.7241C22.7627 23.7232 22.358 23.8296 22 24.0328V22.0023H24.7404C24.809 22.0024 24.876 21.9818 24.9326 21.9431C24.9892 21.9044 25.0328 21.8495 25.0577 21.7856C25.0825 21.7217 25.0875 21.6517 25.0719 21.585C25.0563 21.5182 25.0208 21.4577 24.9702 21.4114C24.7919 21.2515 24.6493 21.0557 24.5517 20.837C24.4541 20.6182 24.4037 20.3814 24.4038 20.1419C24.4038 19.6841 24.5856 19.2452 24.9093 18.9215C25.2329 18.5978 25.6719 18.416 26.1296 18.416C26.5874 18.416 27.0263 18.5978 27.35 18.9215C27.6737 19.2452 27.8555 19.6841 27.8555 20.1419C27.8556 20.3814 27.8051 20.6182 27.7075 20.837C27.61 21.0557 27.4673 21.2515 27.289 21.4114C27.2385 21.4577 27.2031 21.5181 27.1874 21.5848C27.1718 21.6515 27.1767 21.7214 27.2015 21.7853C27.2262 21.8492 27.2697 21.9041 27.3263 21.9428C27.3828 21.9815 27.4497 22.0023 27.5182 22.0023H30.2593V29.2396Z" fill="#D12200"/>
<path d="M19.6565 16.1517C19.6824 15.5369 19.936 14.9538 20.3678 14.5156C20.805 14.054 21.1425 13.5073 21.3594 12.9097C21.5763 12.312 21.6679 11.6761 21.6284 11.0416C21.589 10.407 21.4195 9.78732 21.1303 9.22109C20.8411 8.65487 20.4385 8.15421 19.9475 7.75025C19.4135 7.31183 18.7888 6.99758 18.1184 6.83023C17.4481 6.66288 16.7489 6.64662 16.0715 6.78261C15.261 6.94758 14.5093 7.32637 13.8944 7.87971C13.2796 8.43305 12.824 9.14079 12.5748 9.92954C12.3256 10.7183 12.2919 11.5594 12.4773 12.3655C12.6627 13.1716 13.0603 13.9135 13.629 14.5142C14.061 14.953 14.3149 15.5364 14.3416 16.1517C14.1348 16.1757 13.9439 16.2744 13.8048 16.4293C13.6657 16.5842 13.5879 16.7846 13.5861 16.9928V17.6245C13.5865 17.8535 13.6776 18.0729 13.8395 18.2348C14.0014 18.3967 14.2208 18.4878 14.4497 18.4881H14.5177C14.5722 19.1096 14.8575 19.6881 15.3175 20.1095C15.7775 20.5309 16.3786 20.7647 17.0025 20.7647C17.6263 20.7647 18.2275 20.5309 18.6874 20.1095C19.1474 19.6881 19.4327 19.1096 19.4872 18.4881H19.5552C19.7841 18.4878 20.0036 18.3967 20.1654 18.2348C20.3273 18.0729 20.4184 17.8535 20.4188 17.6245V16.9928C20.4168 16.7836 20.3381 16.5823 20.1976 16.4273C20.0571 16.2722 19.8645 16.1741 19.6565 16.1517Z" fill="#231F20"/>
<path d="M13.104 10.6151C13.2419 9.83699 13.6114 9.11854 14.1641 8.55369C14.7168 7.98884 15.4271 7.60386 16.202 7.44907C16.7811 7.33293 17.3787 7.34668 17.9518 7.48931C18.5249 7.63194 19.0593 7.89991 19.5164 8.27391C19.9354 8.61856 20.279 9.04576 20.5259 9.52893C20.7727 10.0121 20.9175 10.5409 20.9512 11.0824C20.9849 11.624 20.9067 12.1666 20.7217 12.6767C20.5366 13.1867 20.2485 13.6532 19.8754 14.0471C19.3295 14.6061 19.0104 15.3478 18.9798 16.1286H18.2706V13.1849H18.5174C18.7639 13.1852 19.0003 13.0877 19.1749 12.9138C19.3495 12.7399 19.4478 12.5038 19.4484 12.2573V12.1717C19.4484 11.9257 19.3506 11.6898 19.1767 11.5158C19.0028 11.3419 18.7668 11.2441 18.5208 11.2441C18.2748 11.2441 18.0389 11.3419 17.865 11.5158C17.691 11.6898 17.5933 11.9257 17.5933 12.1717V12.5055H16.4101V12.1717C16.4101 11.9257 16.3124 11.6898 16.1385 11.5158C15.9645 11.3419 15.7286 11.2441 15.4826 11.2441C15.2366 11.2441 15.0007 11.3419 14.8267 11.5158C14.6528 11.6898 14.5551 11.9257 14.5551 12.1717V12.258C14.5556 12.504 14.6536 12.7397 14.8276 12.9135C15.0016 13.0874 15.2373 13.1852 15.4833 13.1855H15.7301V16.1293H15.0202C14.9892 15.3481 14.6699 14.606 14.124 14.0464C13.6956 13.5953 13.38 13.0493 13.2027 12.453C13.0255 11.8567 12.9916 11.227 13.104 10.6151Z" fill="#FFBA50"/>
<path d="M15.7294 12.5055H15.4826C15.45 12.5056 15.4178 12.4993 15.3876 12.4869C15.3575 12.4745 15.3302 12.4563 15.3071 12.4333C15.2841 12.4103 15.2658 12.383 15.2533 12.3529C15.2408 12.3228 15.2344 12.2906 15.2344 12.258V12.1723C15.2344 12.1067 15.2605 12.0437 15.3069 11.9973C15.3533 11.9509 15.4162 11.9248 15.4819 11.9248C15.5475 11.9248 15.6105 11.9509 15.6569 11.9973C15.7033 12.0437 15.7294 12.1067 15.7294 12.1723V12.5055Z" fill="#FFBA50"/>
<path d="M17.5906 13.1855H16.4102V16.1299H17.5906V13.1855Z" fill="#FFBA50"/>
<path d="M18.2695 12.5055V12.1723C18.2695 12.1067 18.2956 12.0437 18.342 11.9973C18.3884 11.9509 18.4514 11.9248 18.5171 11.9248C18.5827 11.9248 18.6457 11.9509 18.6921 11.9973C18.7385 12.0437 18.7646 12.1067 18.7646 12.1723V12.2587C18.7646 12.2912 18.7581 12.3235 18.7457 12.3536C18.7332 12.3836 18.7149 12.411 18.6918 12.4339C18.6688 12.4569 18.6414 12.4752 18.6113 12.4876C18.5812 12.5 18.5489 12.5063 18.5164 12.5062L18.2695 12.5055Z" fill="#FFBA50"/>
<path d="M17 20.0856C16.5564 20.0843 16.1285 19.9213 15.7964 19.6274C15.4642 19.3334 15.2505 18.9284 15.1953 18.4883H18.8048C18.7495 18.9284 18.5359 19.3334 18.2037 19.6274C17.8715 19.9213 17.4436 20.0843 17 20.0856Z" fill="#8D7F89"/>
<path d="M19.5485 16.8086H14.4492C14.3478 16.8086 14.2656 16.8908 14.2656 16.9922V17.6232C14.2656 17.7246 14.3478 17.8068 14.4492 17.8068H19.5485C19.6499 17.8068 19.7321 17.7246 19.7321 17.6232V16.9922C19.7321 16.8908 19.6499 16.8086 19.5485 16.8086Z" fill="#8D7F89"/>
<path d="M17.0002 6.13385C17.0903 6.13385 17.1768 6.09803 17.2406 6.03427C17.3043 5.9705 17.3402 5.88402 17.3402 5.79385V3.39957C17.3402 3.3094 17.3043 3.22292 17.2406 3.15915C17.1768 3.09539 17.0903 3.05957 17.0002 3.05957C16.91 3.05957 16.8235 3.09539 16.7597 3.15915C16.696 3.22292 16.6602 3.3094 16.6602 3.39957V5.79385C16.6602 5.88402 16.696 5.9705 16.7597 6.03427C16.8235 6.09803 16.91 6.13385 17.0002 6.13385Z" fill="#231F20"/>
<path d="M22.4492 11.5822C22.4492 11.6724 22.485 11.7588 22.5488 11.8226C22.6126 11.8864 22.699 11.9222 22.7892 11.9222H25.1855C25.2757 11.9222 25.3622 11.8864 25.426 11.8226C25.4897 11.7588 25.5255 11.6724 25.5255 11.5822C25.5255 11.492 25.4897 11.4055 25.426 11.3418C25.3622 11.278 25.2757 11.2422 25.1855 11.2422H22.7892C22.699 11.2422 22.6126 11.278 22.5488 11.3418C22.485 11.4055 22.4492 11.492 22.4492 11.5822Z" fill="#231F20"/>
<path d="M8.81656 11.9222H11.2129C11.3031 11.9222 11.3895 11.8864 11.4533 11.8226C11.5171 11.7588 11.5529 11.6724 11.5529 11.5822C11.5529 11.492 11.5171 11.4055 11.4533 11.3418C11.3895 11.278 11.3031 11.2422 11.2129 11.2422H8.81656C8.72639 11.2422 8.63991 11.278 8.57615 11.3418C8.51238 11.4055 8.47656 11.492 8.47656 11.5822C8.47656 11.6724 8.51238 11.7588 8.57615 11.8226C8.63991 11.8864 8.72639 11.9222 8.81656 11.9222Z" fill="#231F20"/>
<path d="M13.8137 6.73936C13.8588 6.81727 13.933 6.87412 14.0199 6.89744C14.1068 6.92077 14.1995 6.90867 14.2775 6.8638C14.3556 6.81872 14.4126 6.74445 14.4359 6.65736C14.4592 6.57026 14.447 6.47745 14.4019 6.39936L13.2038 4.324C13.1825 4.28337 13.1533 4.24746 13.1178 4.21843C13.0823 4.18939 13.0413 4.16784 12.9972 4.15507C12.9532 4.14229 12.907 4.13855 12.8615 4.14408C12.816 4.14961 12.772 4.16429 12.7323 4.18724C12.6926 4.21019 12.658 4.24093 12.6305 4.27762C12.603 4.3143 12.5832 4.35617 12.5723 4.40071C12.5614 4.44525 12.5596 4.49154 12.567 4.53678C12.5745 4.58203 12.591 4.62531 12.6156 4.664L13.8137 6.73936Z" fill="#231F20"/>
<path d="M22.0119 9.0282C22.0715 9.0282 22.1302 9.01249 22.1819 8.98264L24.2572 7.78448C24.2959 7.76216 24.3299 7.73243 24.3571 7.69699C24.3843 7.66155 24.4043 7.62109 24.4159 7.57793C24.4275 7.53477 24.4304 7.48976 24.4246 7.44545C24.4188 7.40114 24.4043 7.35841 24.382 7.3197C24.3597 7.28099 24.3299 7.24705 24.2945 7.21983C24.2591 7.19261 24.2186 7.17264 24.1755 7.16105C24.1323 7.14947 24.0873 7.14649 24.043 7.1523C23.9987 7.15811 23.9559 7.1726 23.9172 7.19492L21.8419 8.39376C21.777 8.43119 21.7264 8.48895 21.6978 8.5581C21.6691 8.62724 21.6641 8.70391 21.6835 8.7762C21.7028 8.84849 21.7455 8.91237 21.8049 8.95794C21.8643 9.0035 21.937 9.0282 22.0119 9.0282Z" fill="#231F20"/>
<path d="M11.816 14.1805L9.7406 15.3786C9.66242 15.4237 9.60535 15.498 9.58195 15.5852C9.55855 15.6723 9.57073 15.7652 9.61582 15.8434C9.66091 15.9216 9.7352 15.9787 9.82237 16.0021C9.90953 16.0255 10.0024 16.0133 10.0806 15.9682L12.156 14.7694C12.1949 14.7472 12.2292 14.7175 12.2566 14.6821C12.2841 14.6467 12.3043 14.6061 12.316 14.5629C12.3278 14.5196 12.3309 14.4744 12.3251 14.43C12.3193 14.3855 12.3048 14.3426 12.2824 14.3038C12.2599 14.265 12.2301 14.2309 12.1944 14.2037C12.1588 14.1765 12.1182 14.1565 12.0748 14.1451C12.0315 14.1336 11.9863 14.1308 11.9419 14.1369C11.8974 14.143 11.8546 14.1578 11.816 14.1805Z" fill="#231F20"/>
<path d="M9.7406 7.78448L11.816 8.98264C11.8546 9.00532 11.8974 9.02012 11.9419 9.02619C11.9863 9.03227 12.0315 9.0295 12.0748 9.01804C12.1182 9.00657 12.1588 8.98665 12.1944 8.95942C12.2301 8.93218 12.2599 8.89816 12.2824 8.85933C12.3048 8.8205 12.3193 8.77762 12.3251 8.73315C12.3309 8.68869 12.3278 8.64352 12.316 8.60025C12.3043 8.55697 12.2841 8.51645 12.2566 8.48101C12.2292 8.44558 12.1949 8.41592 12.156 8.39376L10.0806 7.19492C10.0024 7.14984 9.90953 7.13765 9.82237 7.16105C9.7352 7.18445 9.66091 7.24152 9.61582 7.3197C9.57073 7.39788 9.55855 7.49077 9.58195 7.57793C9.60535 7.6651 9.66242 7.73939 9.7406 7.78448Z" fill="#231F20"/>
<path d="M21.8438 14.7694L23.9192 15.9682C23.9709 15.998 24.0295 16.0138 24.0892 16.0138C24.1642 16.014 24.2373 15.9894 24.2969 15.9438C24.3565 15.8982 24.3994 15.8342 24.4188 15.7617C24.4382 15.6892 24.4331 15.6123 24.4042 15.543C24.3753 15.4737 24.3243 15.4159 24.2592 15.3786L22.1838 14.1805C22.1451 14.1578 22.1024 14.143 22.0579 14.1369C22.0135 14.1308 21.9683 14.1336 21.925 14.1451C21.8816 14.1565 21.841 14.1765 21.8053 14.2037C21.7697 14.2309 21.7398 14.265 21.7174 14.3038C21.695 14.3426 21.6805 14.3855 21.6747 14.43C21.6689 14.4744 21.672 14.5196 21.6838 14.5629C21.6955 14.6061 21.7157 14.6467 21.7432 14.6821C21.7706 14.7175 21.8048 14.7472 21.8438 14.7694Z" fill="#231F20"/>
<path d="M19.7247 6.8638C19.8027 6.90867 19.8953 6.92077 19.9823 6.89744C20.0692 6.87412 20.1434 6.81727 20.1884 6.73936L21.3866 4.664C21.4112 4.62531 21.4277 4.58203 21.4352 4.53678C21.4426 4.49154 21.4408 4.44525 21.4299 4.40071C21.419 4.35617 21.3992 4.3143 21.3717 4.27762C21.3442 4.24093 21.3095 4.21019 21.2698 4.18724C21.2301 4.16429 21.1862 4.14961 21.1407 4.14408C21.0951 4.13855 21.049 4.14229 21.0049 4.15507C20.9609 4.16784 20.9199 4.18939 20.8844 4.21843C20.8489 4.24746 20.8197 4.28337 20.7984 4.324L19.6002 6.39936C19.5552 6.47745 19.5429 6.57026 19.5663 6.65736C19.5896 6.74445 19.6466 6.81872 19.7247 6.8638Z" fill="#231F20"/>
</svg>
